<svg width="1024" height="1024" xmlns="http://www.w3.org/2000/svg" preserveAspectRatio="xMidYMid meet">

 <g>
  <title>Layer 1</title>
  <g id="svg_6">
   <title/>
   <rect y="-1" x="-1" width="4098.071665" id="canvas_background" height="4098.071665" fill="none"/>
  </g>
  <g stroke="null" id="svg_7">
   <title stroke="null" transform="translate(36.001976013183594,-74.00405883789062) translate(72.00395202636719,-122.00669860839844) translate(79.06477355957031,79.01746368408203) scale(0.8317775726318359,0.8075871467590332) translate(-79.06477355957031,-79.01746368408203) translate(181.6215057373047,190.7429962158203) scale(0.9002551436424255,0.8830025792121887) translate(-181.6215057373047,-190.7429962158203) "/>
   <g stroke="null" transform="translate(0,1024) scale(0.10000000149011612,-0.10000000149011612) " id="svg_1" fill="#000000">
    <path stroke="null" id="svg_2" fill="#0099e5" d="m4887.934414,8233.852105c-775.769272,-54.908818 -1483.396648,-358.690071 -2039.01518,-875.688683c-730.840549,-678.87266 -1081.284583,-1640.133527 -951.7401,-2605.673004c161.7434,-1207.280896 1055.824974,-2212.754059 2283.876716,-2568.591724c949.493664,-275.257192 2006.06745,-111.956941 2811.040391,433.565732c989.180702,671.028543 1503.614573,1784.180037 1350.856917,2923.716287c-161.7434,1207.280896 -1055.824974,2212.754059 -2283.876716,2568.591724c-365.420275,106.252128 -791.494324,151.177525 -1171.142028,124.079667zm2241.943242,-1107.446682c36.69179,-19.966843 59.156151,-52.769513 66.644271,-96.981809c3.74406,-17.114437 -109.326558,-677.446457 -350.444034,-2053.019315c-335.467793,-1918.243125 -355.685718,-2029.486964 -375.903643,-2060.15033c-26.208421,-40.646787 -72.634768,-65.605341 -121.30755,-65.605341c-27.706045,0 -168.482709,51.34331 -724.850053,263.134466l-690.404699,262.421364l-143.771911,-228.905592c-78.625264,-125.50587 -154.25528,-239.602115 -166.985085,-253.151044c-29.203669,-29.950264 -62.151399,-43.499194 -105.582497,-43.499194c-46.426346,0 -79.374076,14.262031 -107.828933,47.064701c-12.729805,15.688234 -139.279039,220.348374 -280.804514,455.67188l-256.842529,427.86092l-564.604277,214.643562c-519.675554,198.242226 -566.850713,217.495968 -588.566262,241.74142c-44.17991,48.490904 -47.92397,131.210682 -7.48812,173.996774c20.966737,21.393046 4277.214362,2724.76096 4303.422783,2732.605076c31.450106,9.983421 79.374076,2.139305 115.317054,-17.827538z"/>
    <path stroke="null" id="svg_3" fill="#0099e5" d="m5440.557698,5259.505609c-718.859557,-734.49458 -1307.425819,-1338.491578 -1308.174631,-1342.770188c0,-3.565508 86.113384,-150.464424 191.695882,-325.174299l193.193506,-318.756385l15.725053,22.819249c8.985744,12.122726 492.718321,731.642173 1075.294087,1598.060537c582.575766,867.131465 1078.289335,1603.765349 1101.502508,1638.707324c23.213173,34.228874 41.184662,62.039833 39.687038,62.039833c-0.748812,0 -590.063886,-601.144593 -1308.923443,-1334.926071z"/>
    <path stroke="null" id="svg_4" fill="#0099e5" d="m4753.148247,5389.290088c-883.598205,-560.497805 -1606.201822,-1021.874498 -1606.201822,-1024.726904c0,-2.852406 189.449446,-78.441169 421.581177,-166.865759c231.38292,-88.42459 426.822862,-166.152657 434.310982,-171.85747c11.980993,-9.983421 74.881204,52.769513 849.152851,842.172911c459.770591,469.220809 987.683078,1007.612467 1173.388464,1197.297475c185.705385,188.971906 336.965417,343.714939 336.216605,343.714939c-1.497624,-0.713102 -724.850053,-459.237388 -1608.448258,-1019.735193z"/>
    <path stroke="null" id="svg_5" fill="#0099e5" d="m5871.12462,5005.641463l-915.048311,-1352.753609l35.194166,-6.417914c19.469113,-2.852406 306.264124,-109.817636 637.239044,-237.462811c330.974921,-126.932073 602.044879,-230.331795 602.793691,-228.905592c2.995248,3.565508 558.61378,3174.728027 556.367344,3176.15423c-0.748812,0.713102 -413.344245,-606.849405 -916.545935,-1350.614304z"/>
   </g>
  </g>
 </g>
</svg>