<?xml version="1.0" encoding="utf-8"?>
<!-- Generator: Adobe Illustrator 21.0.0, SVG Export Plug-In . SVG Version: 6.00 Build 0)  -->
<svg version="1.1" id="圖層_1" xmlns="http://www.w3.org/2000/svg" xmlns:xlink="http://www.w3.org/1999/xlink" x="0px" y="0px"
	 viewBox="0 0 242 288" style="enable-background:new 0 0 242 288;" xml:space="preserve">
<style type="text/css">
	.st0{fill:#FAAB07;}
	.st1{fill:#FFFFFF;}
	.st2{fill:#EB1923;}
</style>
<path class="st0" d="M121,284.6c-25.1,0-48.1-8.4-62.9-20.9c-7.5,2.2-17.1,5.9-23.2,10.4c-5.2,3.8-4.6,7.7-3.6,9.3
	c4.1,6.9,70.5,4.4,89.7,2.3V284.6z"/>
<path class="st0" d="M121,284.6c25.1,0,48.1-8.4,62.9-20.9c7.5,2.2,17.1,5.9,23.2,10.4c5.2,3.8,4.5,7.7,3.6,9.3
	c-4.1,6.9-70.5,4.4-89.7,2.3V284.6z"/>
<path d="M121.2,134.3c41.4-0.3,74.6-8.3,85.8-11.4c2.7-0.7,4.1-2,4.1-2c0-0.4,0.2-6.7,0.2-10c0-55.3-26.1-110.8-90.3-110.8
	c-64.2,0-90.2,55.5-90.2,110.8c0,3.3,0.2,9.6,0.2,10c0,0,1.2,1.2,3.3,1.8c10.4,2.9,44.2,11.3,86.6,11.6H121.2z"/>
<path d="M233.6,180.4c-2.6-8.3-6.1-17.9-9.6-27.1c0,0-2-0.3-3.1,0c-31.8,9.2-70.4,15.1-99.8,14.8h-0.3c-29.2,0.4-67.5-5.5-99.3-14.6
	c-1.2-0.4-3.6-0.2-3.6-0.2c-3.5,9.2-7.1,18.9-9.6,27.1c-12.2,39.4-8.3,55.7-5.3,56c6.5,0.8,25.2-29.6,25.2-29.6
	c0,30.9,27.9,78.4,91.8,78.8c0.3,0,1.4,0,1.7,0c63.9-0.4,91.8-47.9,91.8-78.8c0,0,18.7,30.4,25.2,29.6
	C241.9,236.1,245.9,219.8,233.6,180.4"/>
<path class="st1" d="M98.2,81.8c-8.7,0.4-16.1-9.5-16.6-22.1C81.1,47,87.8,36.5,96.5,36.1c8.7-0.4,16.1,9.5,16.6,22.1
	C113.5,70.8,106.9,81.4,98.2,81.8"/>
<path class="st1" d="M160.4,59.6c-0.5,12.6-7.9,22.5-16.6,22.1c-8.7-0.4-15.4-10.9-14.9-23.5c0.5-12.6,7.9-22.5,16.6-22.1
	C154.2,36.5,160.9,47,160.4,59.6"/>
<path class="st0" d="M175.9,99.6c-2.3-5.2-25.8-10.9-54.7-10.9h-0.3c-29,0-52.4,5.7-54.7,10.9c-0.1,0.2-0.2,0.5-0.2,0.7
	c0,0.4,0.1,0.7,0.3,1c2,2.9,28,17,54.6,17h0.3c26.6,0,52.6-14.1,54.6-17c0.2-0.3,0.3-0.6,0.3-1C176.1,100,176,99.8,175.9,99.6"/>
<path d="M108.9,59.8c0.4,5-2.3,9.4-6.1,9.9c-3.8,0.5-7.1-3.2-7.5-8.1c-0.4-5,2.3-9.4,6.1-9.9C105.1,51.2,108.5,54.8,108.9,59.8"/>
<path d="M132.8,61.5c0.8-1.4,6-8.6,16.9-6c2.8,0.7,4.2,1.7,4.4,2.1c0.4,0.6,0.5,1.4,0.1,2.6c-0.8,2.3-2.5,2.2-3.5,1.8
	c-0.6-0.3-8.2-5.3-15.1,2.2c-0.5,0.5-1.3,0.7-2.1,0.1C132.6,63.6,132.3,62.3,132.8,61.5"/>
<path class="st1" d="M121.2,166.3h-0.3c-20,0.2-44.2-2.4-67.7-7c-2,11.6-3.2,26.3-2.2,43.7c2.6,44.1,28.8,71.8,69.2,72.2h1.6
	c40.4-0.4,66.6-28.1,69.2-72.2c1-17.4-0.2-32.1-2.2-43.7C165.4,163.9,141.2,166.5,121.2,166.3"/>
<path class="st2" d="M64.2,162.6V206c0,0,19.9,4,39.8,1.2v-40C91.4,166.5,77.8,164.9,64.2,162.6"/>
<path class="st2" d="M211.1,120.9c0,0-38.7,12.2-89.9,12.6h-0.3c-51.2-0.3-89.8-12.5-89.9-12.6L18,153.3
	c32.4,9.8,72.5,16.1,102.9,15.7h0.3c30.3,0.4,70.5-5.9,102.9-15.7L211.1,120.9z"/>
</svg>
