<svg width="400" height="400" xmlns="http://www.w3.org/2000/svg">

 <g>
  <title>background</title>
  <rect fill="none" id="canvas_background" height="402" width="402" y="-1" x="-1"/>
 </g>
 <g>
  <title>Layer 1</title>
  <path stroke="null" id="svg_1" d="m341.311667,125.742007c0.825964,8.290374 -0.985827,18.224682 -8.057903,18.710792c-11.544458,0.798398 -5.522918,-9.04458 -5.370666,-14.969223c0.422497,-17.172918 -18.51757,-29.104694 -37.069397,-29.104694c-5.256478,0 -17.46323,2.757566 -15.582926,-5.821528c0.844995,-3.782815 4.986232,-3.729785 9.131275,-4.156972c31.200108,-3.220106 54.757197,13.39305 56.949617,35.341624z" fill="#E99315"/>
  <path stroke="null" id="svg_2" d="m292.67579,174.480771c20.995311,11.099577 46.220664,16.626337 42.038284,49.56813c-1.000912,7.892904 -5.945891,18.439805 -10.926618,25.175544c-35.490655,48.007972 -142.534568,68.186403 -209.381159,31.698272c-22.419227,-12.245228 -45.618926,-30.149628 -42.038284,-65.826016c3.080186,-30.702304 24.444881,-54.484644 45.410403,-74.743674c20.000357,-19.337903 41.090993,-34.467409 69.789748,-41.439187c31.135498,-7.564753 40.340309,17.518678 31.951717,42.25093c18.034281,-1.168679 56.253611,-20.621724 73.155909,-1.623486c7.447258,8.370739 4.593469,23.362076 0,34.939487zm-22.705201,77.996402c6.726364,-7.369013 13.488474,-18.601002 13.44677,-31.681001c-0.089367,-40.379891 -52.732547,-55.296386 -94.169093,-52.003359c-22.663497,1.796197 -37.909524,6.419102 -53.816868,15.440386c-12.982061,7.363256 -28.174468,19.34366 -31.951717,37.368958c-8.50179,40.535331 37.123094,59.585383 70.629799,61.75003c38.713828,2.515827 77.463403,-10.690827 95.86111,-30.875015z" fill="#D52A2C"/>
  <path stroke="null" id="svg_3" d="m320.22795,134.085916c1.517582,9.508569 -1.635502,17.747264 -7.957051,18.110085c-10.541042,0.606177 -6.598405,-6.229905 -7.239276,-14.362408c-0.399903,-5.008702 -5.208997,-10.791717 -9.407983,-12.490782c-8.233907,-3.327336 -20.984672,2.424707 -20.984672,-7.49093c0,-7.362615 7.398212,-6.597151 11.581816,-6.871479c18.323776,-1.203504 31.869221,9.694404 34.007165,23.105513z" fill="#E99315"/>
  <path stroke="null" id="svg_4" d="m230.129091,214.886007c17.902352,47.317966 -75.372056,69.321237 -92.429002,28.65736c-11.412972,-27.194293 15.991259,-48.822686 44.532621,-51.43642c24.367917,-2.23365 42.532225,8.632613 47.896382,22.77906zm-42.853717,8.085916c3.798371,5.748133 12.532242,1.619266 11.764232,-2.936546c-0.916848,-5.274329 -11.841629,-4.493332 -11.764232,2.936546zm-15.127993,24.986677c15.681674,-3.264565 17.789234,-29.094718 -5.882116,-24.25254c-19.884887,4.061181 -16.038888,28.808352 5.882116,24.25254z"/>
 </g>
</svg>